<svg id="instagram" xmlns="http://www.w3.org/2000/svg" width="15.836" height="15.836" viewBox="0 0 15.836 15.836">
  <path id="Tracciato_7" data-name="Tracciato 7" d="M11.311,0H4.524A4.524,4.524,0,0,0,0,4.525v6.787a4.524,4.524,0,0,0,4.524,4.525h6.787a4.524,4.524,0,0,0,4.524-4.525V4.525A4.524,4.524,0,0,0,11.311,0m3.111,11.379a3.043,3.043,0,0,1-3.111,3.043H4.524a3.043,3.043,0,0,1-3.031-3.043V4.525A3.031,3.031,0,0,1,4.524,1.493h6.787a3.031,3.031,0,0,1,3.065,3.031Z" fill="#D9C27A"/>
  <path id="Tracciato_8" data-name="Tracciato 8" d="M7.479,3.4a4.117,4.117,0,1,0,4.106,4.072A4.117,4.117,0,0,0,7.479,3.4m0,6.787a1.117,1.117,0,1,0,0-.011" transform="translate(0.439 0.446)" fill="#D9C27A"/>
  <path id="Tracciato_9" data-name="Tracciato 9" d="M10.861,2.42a.961.961,0,1,0,.961.95.961.961,0,0,0-.961-.95" transform="translate(1.298 0.317)" fill="#D9C27A"/>
</svg>
