<svg id="kakao-talk-fill-svgrepo-com" xmlns="http://www.w3.org/2000/svg" width="21.845" height="21.845" viewBox="0 0 21.845 21.845">
  <path id="Tracciato_72" data-name="Tracciato 72" d="M0,0H21.845V21.845H0Z" fill="none"/>
  <path id="Tracciato_73" data-name="Tracciato 73" d="M11.057,3c5.278,0,9.557,3.335,9.557,7.45S16.336,17.9,11.057,17.9a12.288,12.288,0,0,1-1.572-.1L5.473,20.423c-.456.241-.617.215-.43-.376L5.855,16.7C3.234,15.371,1.5,13.068,1.5,10.45,1.5,6.336,5.779,3,11.057,3Zm5.377,7.336,1.338-1.3a.43.43,0,0,0-.6-.617l-1.755,1.7v-1.4a.43.43,0,0,0-.859,0v2.327a.429.429,0,0,0,0,.2v1.31a.43.43,0,1,0,.859,0V11.317l.389-.376,1.3,1.85a.43.43,0,1,0,.7-.494l-1.378-1.962Zm-2.692,1.751H12.413V8.732a.43.43,0,0,0-.858,0v3.786a.429.429,0,0,0,.429.43h1.759a.43.43,0,0,0,0-.859ZM8.41,11.094,9.044,9.54l.581,1.554H8.41Zm2.3.444,0-.015a.427.427,0,0,0-.116-.291L9.641,8.683a.614.614,0,0,0-1.165-.025L6.964,12.368a.43.43,0,0,0,.8.325l.3-.74H9.944l.272.728a.43.43,0,1,0,.8-.3l-.314-.843Zm-3.024-2.8a.43.43,0,0,0-.429-.43H4.3a.43.43,0,0,0,0,.859H5.357v3.4a.43.43,0,1,0,.859,0v-3.4H7.253a.43.43,0,0,0,.43-.43Z" transform="translate(-0.135 -0.269)" fill="#D9C27A"/>
</svg>
