<svg xmlns="http://www.w3.org/2000/svg" width="17.475" height="17" viewBox="0 0 17.475 17">
  <g id="Layer_2" transform="translate(-3.735 -4.991)">
    <g id="Raggruppa_67" data-name="Raggruppa 67" transform="translate(3.735 4.991)">
      <g id="Raggruppa_66" data-name="Raggruppa 66" transform="translate(0)">
        <path id="Tracciato_74" data-name="Tracciato 74" d="M21.163,11.554C20.409,5.662,12.524,3.433,7.79,6.119.674,10.142,3.672,18.624,11,19.6l.1.019c.231.046.293.109.309.133a.289.289,0,0,1,0,.187,3.117,3.117,0,0,0-.144,1.3c.239,1.265,1.569.642,2.241.2.85-.5,1.652-1.063,2.255-1.5C18.615,17.958,21.624,15.488,21.163,11.554Z" transform="translate(-3.735 -4.991)" fill="#ccaf52"/>
        <path id="Tracciato_75" data-name="Tracciato 75" d="M24.289,36.738H22.781a.413.413,0,0,1-.412-.412V33.162a.412.412,0,0,1,.825,0v2.751h1.095A.412.412,0,0,1,24.289,36.738Z" transform="translate(-18.85 -27.511)" fill="#191919"/>
        <path id="Tracciato_76" data-name="Tracciato 76" d="M37.316,36.267a.412.412,0,0,1-.825,0V33.1a.412.412,0,0,1,.825,0Z" transform="translate(-30.305 -27.463)" fill="#191919"/>
        <path id="Tracciato_77" data-name="Tracciato 77" d="M47.473,36.267a.415.415,0,0,1-.746.242l-1.485-2.045v1.8a.412.412,0,0,1-.825,0V33.194a.414.414,0,0,1,.746-.242L46.648,35V33.1a.412.412,0,0,1,.825,0S47.473,36.267,47.473,36.267Z" transform="translate(-36.734 -27.463)" fill="#191919"/>
        <path id="Tracciato_78" data-name="Tracciato 78" d="M65.971,36.315H63.93a.413.413,0,0,1-.412-.412c0-.788,0-2.375,0-3.164a.413.413,0,0,1,.412-.412h1.978a.412.412,0,0,1,0,.825H64.343v.757h1.27a.412.412,0,0,1,0,.825h-1.27v.757h1.629A.413.413,0,0,1,65.971,36.315Z" transform="translate(-52.227 -27.164)" fill="#191919"/>
      </g>
    </g>
  </g>
</svg>
