<svg xmlns="http://www.w3.org/2000/svg" width="15.836" height="14.711" viewBox="0 0 15.836 14.711">
  <path id="linkedin" d="M3.484,14.705H.4V4.718H3.484ZM1.866,3.462h0A1.719,1.719,0,0,1,0,1.731,1.742,1.742,0,0,1,1.889,0a1.731,1.731,0,0,1,0,3.461ZM15.836,14.705h-3.5V9.536c0-1.357-.554-2.262-1.753-2.262a1.765,1.765,0,0,0-1.674,1.21,2.262,2.262,0,0,0-.079.814v5.407H5.373V4.718H8.834V6.278a3.167,3.167,0,0,1,3.088-1.663c2.194,0,3.914,1.437,3.914,4.525Z" transform="translate(0 0.005)" fill="#98680E"/>
</svg>
