<?xml version="1.0" encoding="utf-8"?>
<!-- Generator: Adobe Illustrator 27.3.1, SVG Export Plug-In . SVG Version: 6.00 Build 0)  -->
<svg version="1.1" id="Layer_1" xmlns="http://www.w3.org/2000/svg" xmlns:xlink="http://www.w3.org/1999/xlink" x="0px" y="0px"
	 viewBox="0 0 121.1 13" style="enable-background:new 0 0 121.1 13;" xml:space="preserve">
<path d="M114.4,0.2v12.6h6.8v-1.2h-4.8V7h4.4V5.9h-4.4V1.4h4.8V0.2H114.4z M111.2,9.9c0-1.3-0.5-2.3-2-3.3c-0.7-0.5-1.5-1-2.3-1.6
	c-1-0.7-1.5-1.2-1.5-2.1c0-1,0.6-1.8,1.8-1.8c1.3,0,1.9,0.8,1.9,2.2v0.9h2V3.6c0-2.6-2-3.6-3.9-3.6c-2,0-3.8,1.3-3.8,3.3
	c0,1.3,0.6,2.1,1.8,3c0.6,0.4,1.7,1.1,2.3,1.5c1,0.7,1.7,1.2,1.7,2.3c0,1.2-0.8,1.8-2,1.8c-1.3,0-1.9-0.8-1.9-2.2V8.4h-2v1
	c0,2.5,2,3.6,3.9,3.6C109.3,13,111.2,11.9,111.2,9.9z M98.1,9.8c0,1.3-0.6,2.1-1.8,2.1c-1.2,0-1.8-0.8-1.8-2.1V3.3
	c0-1.3,0.6-2.1,1.8-2.1c1.2,0,1.8,0.8,1.8,2.1V9.8z M100.2,9.4V3.6c0-2.5-2-3.6-3.9-3.6s-3.9,1-3.9,3.6v5.8c0,2.5,2,3.6,3.9,3.6
	S100.2,12,100.2,9.4z M78.2,6h-3.9v1h1.8v2.7c0,1.3-0.6,2.1-1.8,2.1s-1.8-0.8-1.8-2.1V3.3c0-1.3,0.6-2.1,1.8-2.1s1.8,0.8,1.8,2.1
	v0.6h2.1V3.6c0-2.5-2-3.6-3.9-3.6c-1.9,0-3.9,1-3.9,3.6v5.8c0,2.5,2,3.6,3.9,3.6c1.9,0,3.9-1,3.9-3.6L78.2,6L78.2,6z M87.1,9.8
	c0,1.3-0.6,2.1-1.8,2.1c-1.2,0-1.8-0.8-1.8-2.1V3.3c0-1.3,0.6-2.1,1.8-2.1c1.2,0,1.8,0.8,1.8,2.1V9.8z M89.2,9.4V3.6
	c0-2.5-2-3.6-3.9-3.6s-3.9,1-3.9,3.6v5.8c0,2.5,2,3.6,3.9,3.6C87.2,13,89.2,12,89.2,9.4z M35.4,1.3c1.2,0,1.8,0.8,1.8,2.1v6.2
	c0,1.3-0.6,2.1-1.8,2.1h-1.9V1.3L35.4,1.3L35.4,1.3z M35.4,12.8c1.9,0,3.9-1,3.9-3.6V3.8c0-2.5-2-3.6-3.9-3.6h-4v12.6L35.4,12.8
	L35.4,12.8z M60.6,0.2h-1.1V10l-5-9.7h-2.1v12.6h1.2v-10l5.1,10h1.9L60.6,0.2L60.6,0.2z M7.8,6H3.9v1h1.8v2.7c0,1.3-0.6,2.1-1.8,2.1
	C2.7,11.9,2,11.1,2,9.8V3.3c0-1.3,0.6-2.1,1.8-2.1c1.2,0,1.8,0.8,1.8,2.1v0.6h2.1V3.6c0-2.5-2-3.6-3.9-3.6C2,0,0,1,0,3.6v5.8
	C0,12,2,13,3.9,13c1.9,0,3.9-1,3.9-3.6L7.8,6L7.8,6z M16.8,9.8c0,1.3-0.6,2.1-1.8,2.1s-1.8-0.8-1.8-2.1V3.3c0-1.3,0.6-2.1,1.8-2.1
	s1.8,0.8,1.8,2.1V9.8z M18.8,9.4V3.6c0-2.5-2-3.6-3.9-3.6S11,1,11,3.6v5.8c0,2.5,2,3.6,3.9,3.6S18.8,12,18.8,9.4z M42.5,0.2v12.6
	h6.8v-1.2h-4.8V7H49V5.9h-4.4V1.4h4.8V0.2H42.5z M22,0.2v12.6h6.9v-1.2h-4.8V0.2H22z"/>
</svg>
