<svg width="142" height="13" viewBox="0 0 142 13" fill="none" xmlns="http://www.w3.org/2000/svg">
<path d="M114.367 0.240372V12.7997H121.123V11.6379H116.335V7.01079H120.778V5.88906H116.335V1.40216H121.123V0.240372H114.367ZM111.222 9.91526C111.222 8.61325 110.735 7.65177 109.254 6.6302C108.524 6.1094 107.773 5.60863 106.962 5.04777C105.927 4.32666 105.44 3.88598 105.44 2.98459C105.44 1.96302 106.028 1.14176 107.286 1.14176C108.544 1.14176 109.153 1.92296 109.153 3.32512V4.24654H111.161V3.62558C111.161 1.02157 109.193 0 107.286 0C105.237 0 103.472 1.26194 103.472 3.28505C103.472 4.54699 104.101 5.40832 105.318 6.26964C105.967 6.71032 106.982 7.39137 107.57 7.81202C108.585 8.49307 109.295 9.01387 109.295 10.0755C109.295 11.2773 108.504 11.8983 107.286 11.8983C106.028 11.8983 105.379 11.1171 105.379 9.73498V8.39291H103.37V9.41448C103.37 11.9384 105.379 12.98 107.286 12.98C109.274 13 111.222 11.8783 111.222 9.91526ZM98.136 9.75501C98.136 11.0971 97.5071 11.8783 96.2898 11.8783C95.0724 11.8783 94.4435 11.0971 94.4435 9.75501V3.28505C94.4435 1.94299 95.0724 1.16179 96.2898 1.16179C97.5071 1.16179 98.136 1.94299 98.136 3.28505V9.75501ZM100.226 9.43452V3.58552C100.226 1.06163 98.2577 0.020032 96.31 0.020032C94.3623 0.020032 92.3943 1.0416 92.3943 3.58552V9.43452C92.3943 11.9584 94.3623 13 96.31 13C98.2577 13 100.226 11.9784 100.226 9.43452ZM78.172 6.02928H74.2563V7.05085H76.1026V9.75501C76.1026 11.0971 75.4736 11.8783 74.2563 11.8783C73.039 11.8783 72.4101 11.0971 72.4101 9.75501V3.28505C72.4101 1.94299 73.039 1.16179 74.2563 1.16179C75.4736 1.16179 76.1026 1.94299 76.1026 3.28505V3.92604H78.1923V3.58552C78.1923 1.06163 76.2243 0.020032 74.2766 0.020032C72.3289 0.020032 70.3609 1.0416 70.3609 3.58552V9.43452C70.3609 11.9584 72.3289 13 74.2766 13C76.2243 13 78.1923 11.9784 78.1923 9.43452V6.02928H78.172ZM87.1193 9.75501C87.1193 11.0971 86.4904 11.8783 85.273 11.8783C84.0557 11.8783 83.4268 11.0971 83.4268 9.75501V3.28505C83.4268 1.94299 84.0557 1.16179 85.273 1.16179C86.4904 1.16179 87.1193 1.94299 87.1193 3.28505V9.75501ZM89.209 9.43452V3.58552C89.209 1.06163 87.241 0.020032 85.2933 0.020032C83.3456 0.020032 81.3776 1.0416 81.3776 3.58552V9.43452C81.3776 11.9584 83.3456 13 85.2933 13C87.2207 13 89.209 11.9784 89.209 9.43452ZM35.4442 1.32204C36.6209 1.32204 37.2905 2.10324 37.2905 3.40524V9.59476C37.2905 10.8968 36.6412 11.678 35.4442 11.678H33.5777V1.302H35.4442V1.32204ZM35.4442 12.7997C37.3919 12.7997 39.3599 11.7781 39.3599 9.23421V3.78582C39.3599 1.26194 37.3919 0.22034 35.4442 0.22034H31.4879V12.7797H35.4442V12.7997ZM60.6427 0.240372H59.5065V9.95532L54.5561 0.240372H52.4461V12.7997H53.6228V2.76425L58.7152 12.7997H60.663V0.240372H60.6427ZM7.81112 6.02928H3.89542V7.05085H5.74168V9.75501C5.74168 11.0971 5.11273 11.8783 3.89542 11.8783C2.6781 11.8783 2.04915 11.0971 2.04915 9.75501V3.28505C2.04915 1.94299 2.6781 1.16179 3.89542 1.16179C5.11273 1.16179 5.74168 1.94299 5.74168 3.28505V3.92604H7.83141V3.58552C7.83141 1.06163 5.86341 0.020032 3.91571 0.020032C1.968 0.020032 0 1.0416 0 3.58552V9.43452C0 11.9584 1.968 13 3.91571 13C5.86341 13 7.83141 11.9784 7.83141 9.43452V6.02928H7.81112ZM16.7584 9.75501C16.7584 11.0971 16.1294 11.8783 14.9121 11.8783C13.6948 11.8783 13.0659 11.0971 13.0659 9.75501V3.28505C13.0659 1.94299 13.6948 1.16179 14.9121 1.16179C16.1294 1.16179 16.7584 1.94299 16.7584 3.28505V9.75501ZM18.8278 9.43452V3.58552C18.8278 1.06163 16.8598 0.020032 14.9121 0.020032C12.9644 0.020032 10.9964 1.0416 10.9964 3.58552V9.43452C10.9964 11.9584 12.9644 13 14.9121 13C16.8598 13 18.8278 11.9784 18.8278 9.43452ZM136.725 4.98767L135.102 0L130.841 13L135.102 9.91526L139.403 13L137.739 8.01233L142 5.0077H136.725V4.98767ZM42.5452 0.240372V12.7997H49.3013V11.6379H44.5132V7.01079H48.9564V5.88906H44.5132V1.40216H49.3013V0.240372H42.5452ZM22.0131 0.240372V12.7997H28.8707V11.6379H24.0826V0.240372H22.0131Z" fill="black"/>
</svg>
