<svg xmlns="http://www.w3.org/2000/svg" width="93.312" height="72.506" viewBox="0 0 93.312 72.506"><defs><style>.a,.b{fill:none;}.a{stroke:#fff;stroke-linecap:round;stroke-linejoin:round;stroke-width:3px;}</style></defs><g transform="translate(1.534 1.5)"><line class="a" x1="26.123" transform="translate(31.377 51.417)"/><path class="a" d="M60,39.242V13.4H73.018a6.636,6.636,0,0,1,5.79,3.388L86.089,29.71a6.362,6.362,0,0,1,.815,3.12l-.021,14.315A4.261,4.261,0,0,1,82.626,51.4H75.7" transform="translate(3.374 0.004)"/><path class="a" d="M72.424,18.87l5.887,10.509a1.122,1.122,0,0,1-.976,1.673H65.84" transform="translate(3.797 0.399)"/><ellipse class="b" cx="11.227" cy="11.227" rx="11.227" ry="11.227" transform="translate(54.518 64.044) rotate(-76.72)"/><ellipse class="a" cx="11.227" cy="11.227" rx="11.227" ry="11.227" transform="translate(54.518 64.044) rotate(-76.72)"/><path class="a" d="M68.908,53.139a4.289,4.289,0,1,1-4.289-4.289" transform="translate(3.398 2.567)"/><path class="b" d="M11.227,0A11.227,11.227,0,1,1,0,11.227,11.227,11.227,0,0,1,11.227,0Z" transform="translate(8.116 64.984) rotate(-80.75)"/><ellipse class="a" cx="11.227" cy="11.227" rx="11.227" ry="11.227" transform="translate(8.116 64.984) rotate(-80.75)"/><path class="a" d="M25.058,53.139a4.289,4.289,0,1,1-4.289-4.289" transform="translate(0.228 2.567)"/><path class="a" d="M57.486,13.328l-20-10.691A14.673,14.673,0,0,0,30.539.9H7.849A1.42,1.42,0,0,0,6.476,1.972L.943,24.083a1.393,1.393,0,0,0,.708,1.587l20,10.691A14.673,14.673,0,0,0,28.6,38.1H51.277a1.42,1.42,0,0,0,1.373-1.072l5.533-22.111a1.393,1.393,0,0,0-.708-1.587Z" transform="translate(-0.899 -0.9)"/><path class="a" d="M33.977,7.93,28.433,30.266a1.58,1.58,0,0,0,1.533,1.962h16.31" transform="translate(1.088 -0.392)"/><path class="a" d="M28.619,6.31,23.075,28.646A1.579,1.579,0,0,1,20.8,29.665L6.39,22.03" transform="translate(-0.502 -0.509)"/><path class="a" d="M13.835,35.6H5.75V49.808" transform="translate(-0.548 1.609)"/></g></svg>