<svg xmlns="http://www.w3.org/2000/svg" width="75.783" height="76.011" viewBox="0 0 75.783 76.011"><defs><style>.a{fill:#fff;stroke:#fff;}</style></defs><g transform="translate(0.49 0.483)"><g transform="translate(0 0)"><path class="a" d="M11.167,38.634c2.685.628,4.393-1.281,4.721-3.776.2-1.482-.461-2.382-1.276-3.522a5.78,5.78,0,1,1,10.172-1.791c-.436,1.457-1.762,2.362-2.124,3.816a5.149,5.149,0,0,0,.563,3.482,3.827,3.827,0,0,0,2.97,1.873c.257.02,1.677-.051.967-.04.223,0,.45,0,.673,0h5.581c1.635,0,3.42.218,4.523-1.293.976-1.338.628-3.482.628-5.038V27.22l-2.028.84h0c.71.846,1.974.1,2.028-.84a2.114,2.114,0,0,1,1.652-2.042c1.1-.215,1.941.928,2.829,1.412a8.155,8.155,0,1,0,6.039-15.024,8.29,8.29,0,0,0-6.065.755c-.857.475-1.666,1.6-2.718,1.42a2.23,2.23,0,0,1-1.734-2.156,1.206,1.206,0,0,0-1.788-1.027h0l1.788,1.027v-4.7c0-1.412.283-3.211-.167-4.588C37.531-.395,34.287.134,32.092.134H8.494c-1.875,0-4.116-.342-5.972.074C-.454.878.027,4.145.027,6.437V34.4a4.342,4.342,0,0,0,.812,3.219c1.318,1.443,3.624,1.052,5.38,1.052H9.739c.393,0,.789.011,1.18,0,.269-.008.818.136.246-.042,1.462.458,2.088-1.836.631-2.291-1.123-.351-2.744-.042-3.9-.042a28.058,28.058,0,0,1-4.6,0c-.993-.175-.9-.815-.9-1.584V5.308a10.953,10.953,0,0,1,0-1.926c.164-.86.707-.871,1.4-.871H33.4a10,10,0,0,1,1.994,0c1.355.3.8,3.222.8,4.232v4.849a1.2,1.2,0,0,0,1.788,1.027h0l-1.788-1.027a4.678,4.678,0,0,0,2.823,4.215,3.978,3.978,0,0,0,2.495.238,7.9,7.9,0,0,0,2.345-1.448,5.776,5.776,0,1,1,.031,9.734,8.248,8.248,0,0,0-2.4-1.457,4.089,4.089,0,0,0-2.543.246A4.557,4.557,0,0,0,36.2,27.225l2.028-.84h0a1.2,1.2,0,0,0-2.028.84v3.861a23.834,23.834,0,0,1,0,4.379c-.257,1.279-2.288.84-3.281.84-1.745,0-3.491-.025-5.233,0a8.716,8.716,0,0,1-1.375.054A1.535,1.535,0,0,1,25.1,35.123a1.953,1.953,0,0,1,.385-1.974,8.439,8.439,0,0,0,1.42-8.1,8.151,8.151,0,1,0-14.976,6.4c.368.767,1.061,1.344,1.423,2.079.54,1.095-.042,3.174-1.547,2.823-1.488-.348-2.122,1.943-.631,2.291Z" transform="translate(0.001 -0.002)"/><path class="a" d="M150.815,39.012H154.7l-.84-2.028h0c-.846.71-.1,1.974.84,2.028a2.114,2.114,0,0,1,2.042,1.652c.215,1.1-.928,1.941-1.412,2.829a8.157,8.157,0,1,0,14.268-.025c-.475-.857-1.6-1.666-1.42-2.718a2.23,2.23,0,0,1,2.156-1.734,1.206,1.206,0,0,0,1.027-1.788h0l-1.027,1.788c2.662,0,5.332.062,7.994,0a3.266,3.266,0,0,0,3.431-2.812,10.778,10.778,0,0,0,.031-1.352V7.508a34.531,34.531,0,0,0-.031-4.226C181.388.4,178.707.47,176.526.47H150.413a1.189,1.189,0,0,0,0,2.376h23.032a31.7,31.7,0,0,1,5.078,0c1.287.221.883,2.1.883,3.1V35.233c0,.707-.014,1.247-.9,1.4a26.5,26.5,0,0,1-4.317,0h-3.864a1.2,1.2,0,0,0-1.027,1.788h0l1.027-1.788a4.678,4.678,0,0,0-4.215,2.823,3.978,3.978,0,0,0-.238,2.495,7.9,7.9,0,0,0,1.448,2.345,5.776,5.776,0,1,1-9.734.031,8.247,8.247,0,0,0,1.457-2.4,4.089,4.089,0,0,0-.246-2.543,4.562,4.562,0,0,0-4.107-2.752l.84,2.028h0a1.2,1.2,0,0,0-.84-2.028h-3.881a1.189,1.189,0,0,0,0,2.376h0Z" transform="translate(-107.042 -0.337)"/><path class="a" d="M150.413,176.009H177.04c1.692,0,3.46.054,4.379-1.723.56-1.081.359-2.571.359-3.748V142.083a1.189,1.189,0,0,0-2.376,0v26.163c0,1.42.1,2.88,0,4.3-.085,1.222-1.018,1.089-1.972,1.089H150.413a1.189,1.189,0,0,0,0,2.376h0Z" transform="translate(-107.042 -101.069)"/><path class="a" d="M.041,142.056v28.9a8.494,8.494,0,0,0,.226,3c1.129,2.891,5.81,2.017,8.24,2.017H34.719c1.709,0,3.369-.617,3.793-2.495.4-1.8.074-3.969.074-5.8v-2.919c0-.076,0-.156,0-.232-.037.7.088-.342.1-.554a3.51,3.51,0,0,0-.634-2.2,4.628,4.628,0,0,0-3.443-1.686c-2.158-.221-3.256,1.624-5.171,2.189a5.772,5.772,0,1,1,1.709-10.235c1.434,1.032,2.458,1.641,4.286,1.208a3.987,3.987,0,0,0,3.12-2.925,4.416,4.416,0,0,0,.071-1.219c-.011-.32-.042-.758-.037-.283,0-.32,0-.639,0-.959v-5.822a1.189,1.189,0,0,0-2.376,0v5.609a13.374,13.374,0,0,1,.054,2.042A1.713,1.713,0,0,1,34.691,151c-1.064.2-1.587-.484-2.39-1.033a8.15,8.15,0,1,0,.478,13.227,2.282,2.282,0,0,1,2.189-.617c.8.181,1.366.532,1.321,1.429-.085,1.737-.076,3.482-.076,5.228,0,1.061.577,4.1-.843,4.37a15.15,15.15,0,0,1-2.656,0H6.431a20.855,20.855,0,0,1-3.089,0c-1.044-.161-.928-.9-.928-1.714V142.05a1.189,1.189,0,0,0-2.376,0h0Z" transform="translate(-0.013 -101.045)"/></g></g></svg>