<svg xmlns="http://www.w3.org/2000/svg" width="89.276" height="81.165" viewBox="0 0 89.276 81.165"><defs><style>.a,.b{fill:none;stroke:#fff;stroke-linecap:round;stroke-width:3px;}.a{stroke-linejoin:round;}</style></defs><g transform="translate(3.391 2.118)"><g transform="translate(0 0)"><g transform="translate(35.696 0.285)"><path class="a" d="M173.215,48.252l-14.487,50.7c-.9,3.09,1.61,7.243,4.829,7.243h38.631c3.218,0,5.729-4.153,4.829-7.243l-14.487-50.7V36.18H173.215Z" transform="translate(-158.544 -28.937)"/><line class="a" x2="9.658" transform="translate(9.843 38.631)"/><line class="a" x2="9.658" transform="translate(7.428 45.874)"/><line class="a" x2="9.658" transform="translate(5.014 53.117)"/><g transform="translate(31.573 33.802)"><line class="a" transform="translate(9.658 31.388)"/><line class="a" x2="7.243" y2="24.144"/></g><rect class="a" width="33.802" height="7.243" transform="translate(7.428)"/></g><g transform="translate(0)"><path class="b" d="M53.907,5,49.95,11.963,56,15.491l1.359-2.376,1.231-2.156" transform="translate(-40.473 -5)"/><path class="b" d="M66.325,5h9.617l4.385,7.772L83.96,10.56,80.79,20.8,70.427,18.453,74.3,16.229l-3.17-5.49A39.371,39.371,0,0,0,66.32,5" transform="translate(-52.891 -5)"/><path class="b" d="M129.969,80.261l-3.991-6.941-6.048,3.525,1.357,2.378,1.253,2.187" transform="translate(-93.557 -56.825)"/><path class="b" d="M96.229,92.209l-2.4,4.206-2.4,4.206-8.856-.051.08,4.286L75.45,96.963l7.19-7.893-.029,4.5,6.292-.029A38.5,38.5,0,0,0,96.226,92.2" transform="translate(-59.817 -68.772)"/><path class="b" d="M30.62,114.684l7.946-.022V107.61H33.307" transform="translate(-25.81 -82.836)"/><path class="b" d="M15.51,72.342l-2.4-4.206L10.7,63.93l4.472-7.721-3.713-2.074L21.821,51.79l3.17,10.237L21.147,59.75l-3.122,5.517a39.735,39.735,0,0,0-2.516,7.074" transform="translate(-10.7 -40.493)"/></g></g></g></svg>