<svg xmlns="http://www.w3.org/2000/svg" width="89.066" height="96.068" viewBox="0 0 89.066 96.068"><defs><style>.a{fill:none;stroke:#fff;stroke-linejoin:round;stroke-width:3px;}</style></defs><g transform="translate(0.9 1.578)"><g transform="translate(0 0)"><path class="a" d="M6,366.568l7.41-5.558,14.817,20.375-7.41,5.556" transform="translate(-6 -293.65)"/><path class="a" d="M63.91,323.863,78.727,312.75h22.227a5.555,5.555,0,0,1,5.556,5.556h0a5.555,5.555,0,0,1-5.556,5.556H86.137" transform="translate(-52.797 -254.652)"/><path class="a" d="M145.8,335.723l24.155-8.052a4.749,4.749,0,0,1,5.584,2.076h0a4.751,4.751,0,0,1-2.051,6.728l-23.984,12.213h-25.93L117.12,353" transform="translate(-95.795 -266.511)"/><path class="a" d="M110.6,67.84a34.189,34.189,0,1,1,47.209,2.1" transform="translate(-82.855 -10.006)"/><path class="a" d="M155.389,54.85c4.065,0,3.324,3.074,6.483,3.692,9.664,1.888,8.945,8.975,7.471,10.856-1.178,1.5-3.9.956-7.442,3.815-2.412,1.95-6.289,2.437-7.156,4.128-2.391,4.667,7.223,6.678,6.381,10.983-1.808,9.242-6.216,12.434-10.52,5.738-1.336-2.078.021-4.335-.852-6.707-1.136-3.09-3.5-3.005-5.446-5.523-1.551-2.007-5.655-3.79-4.938-10.486" transform="translate(-113.707 -46.244)"/><path class="a" d="M337.793,62.33c.956,3.347-.424,4.84-1.107,6.82-1.677,4.857,5.943,3.685,9.634,4.74,2.639.754,8.026,6.523,2.971,7.809-1.9.484-2.775-1.439-4.445-1.829-2.869-.67-5.009.745-7.147,2.535a10.218,10.218,0,0,0-3.013,10.768c1.673,5.738,7.411,9.085,11.716,11.238" transform="translate(-271.245 -52.289)"/></g></g></svg>