<svg xmlns="http://www.w3.org/2000/svg" width="93.278" height="92.318" viewBox="0 0 93.278 92.318"><defs><style>.a{fill:none;stroke:#fff;stroke-linecap:round;stroke-linejoin:round;stroke-width:3px;}</style></defs><g transform="translate(1.5 1.5)"><g transform="translate(0 0)"><g transform="translate(0)"><path class="a" d="M39.528,15.977c10.45,7.381,11.137,16.39,11.137,16.39C21.613,35.981,31.731,14.061,20.178,3.54c30.581-.035,38.245,23.783,39.9,41.785a5.916,5.916,0,0,0,4.666,5.266A21.356,21.356,0,1,1,45.848,87.137a5.868,5.868,0,0,0-4.018-1.545l-3.624.01H21.332a6.554,6.554,0,0,1-6.555-6.555V71.64a7.078,7.078,0,0,1,3.856-6.3l1.467-.751a10.629,10.629,0,0,0,4.772-4.7,11.21,11.21,0,0,0,1.145-4.946v-9.6a1.648,1.648,0,0,0-1.644-1.648l-4.83-.016L5.178,43.7A1.649,1.649,0,0,0,3.53,45.345v9.6A11.227,11.227,0,0,0,8.55,64.3" transform="translate(-3.53 -3.54)"/><line class="a" y2="5.249" transform="translate(5.027 29.816)"/><line class="a" y2="5.249" transform="translate(17.509 29.816)"/><line class="a" x1="11.779" transform="translate(5.382 46.883)"/></g><path class="a" d="M189.61,49.531c4.376-10.724,13.162-17.8,30.278-16.467-9.7,7.552-3.1,25.363-25.667,20.759,0,0,1.087-7.026,9.735-12.179" transform="translate(-129.61 -23.436)"/><g transform="translate(42.16 53.258)"><path class="a" d="M174.664,187.41l-4.524,8.625h6.281l-4.6,8.722" transform="translate(-158.577 -181.38)"/><ellipse class="a" cx="14.703" cy="14.703" rx="14.703" ry="14.703"/></g></g></g></svg>