<svg xmlns="http://www.w3.org/2000/svg" width="84.643" height="84.639" viewBox="0 0 84.643 84.639"><defs><style>.a{fill:#fff;stroke:#fff;}</style></defs><g transform="translate(0.5 0.5)"><path class="a" d="M84.95,131.99a23.41,23.41,0,1,1,23.413-23.41A23.436,23.436,0,0,1,84.95,131.99Zm0-45.319a21.907,21.907,0,1,0,21.905,21.908A21.964,21.964,0,0,0,84.95,86.672h0Z" transform="translate(-43.129 -59.687)"/><path class="a" d="M108.169,145.3a13.5,13.5,0,1,1,13.5-13.5,13.537,13.537,0,0,1-13.5,13.5Zm0-25.492A11.994,11.994,0,1,0,120.162,131.8,12.027,12.027,0,0,0,108.169,119.8Z" transform="translate(-66.347 -82.905)"/><path class="a" d="M41.827,83.623a31.364,31.364,0,0,1-3.267-.174,2.869,2.869,0,0,1-2.474-2.39L35.5,77.487a.662.662,0,0,0-.5-.539,28.446,28.446,0,0,1-8.2-3.4.664.664,0,0,0-.347-.1.672.672,0,0,0-.386.123l-2.95,2.112a2.831,2.831,0,0,1-1.687.556,2.87,2.87,0,0,1-1.726-.586c-.966-.814-1.72-1.5-2.441-2.217a32.086,32.086,0,0,1-2.193-2.408,2.89,2.89,0,0,1-.045-3.461l2.1-2.935a.666.666,0,0,0,.027-.733,28.53,28.53,0,0,1-3.4-8.2.666.666,0,0,0-.539-.5L9.639,54.61a2.872,2.872,0,0,1-2.387-2.468,30.917,30.917,0,0,1,0-6.528,2.869,2.869,0,0,1,2.39-2.474l3.572-.586a.667.667,0,0,0,.539-.5A28.635,28.635,0,0,1,15.374,37.3a.665.665,0,0,0-.395-.9,16.944,16.944,0,0,1-2.737-1.215.66.66,0,0,0-.709.042L9.858,36.438a1.967,1.967,0,0,1-1.173.386h0a1.984,1.984,0,0,1-1.2-.407c-.518-.437-.978-.853-1.448-1.31-.512-.518-.93-.978-1.3-1.436A2.01,2.01,0,0,1,4.7,31.253l1.2-1.66a.665.665,0,0,0,.039-.718,16.9,16.9,0,0,1-1.61-3.859.668.668,0,0,0-.533-.479L1.765,24.2A2.032,2.032,0,0,1,.1,22.476C.03,21.713,0,21.118,0,20.543s.03-1.167.1-1.921a1.969,1.969,0,0,1,1.663-1.738l2.025-.332a.663.663,0,0,0,.533-.479A16.817,16.817,0,0,1,5.93,12.217a.665.665,0,0,0-.039-.718L4.685,9.827a2,2,0,0,1,.042-2.4A18.108,18.108,0,0,1,6.022,6c.512-.506.981-.93,1.43-1.3a1.99,1.99,0,0,1,2.4-.048l1.687,1.2a.663.663,0,0,0,.712.036,17.228,17.228,0,0,1,3.862-1.6.668.668,0,0,0,.479-.533l.326-2.028A1.974,1.974,0,0,1,18.653.065c.622-.042,1.271-.072,1.915-.072s1.292.03,1.933.09a1.969,1.969,0,0,1,1.738,1.663l.332,2.025a.664.664,0,0,0,.476.533,17.41,17.41,0,0,1,3.865,1.607.663.663,0,0,0,.712-.036l1.678-1.2a1.973,1.973,0,0,1,1.176-.389A2,2,0,0,1,33.69,4.7c.539.44,1.029.9,1.436,1.3a18.973,18.973,0,0,1,1.292,1.43,2,2,0,0,1,.048,2.4L35.257,11.52a.654.654,0,0,0-.036.715A16.926,16.926,0,0,1,36.3,14.491a.671.671,0,0,0,.425.395.712.712,0,0,0,.194.03.672.672,0,0,0,.38-.12,2.792,2.792,0,0,1,1.254-.476,30.266,30.266,0,0,1,6.528,0,2.8,2.8,0,0,1,1.265.479.66.66,0,0,0,.377.117.614.614,0,0,0,.194-.03.671.671,0,0,0,.425-.395,16.771,16.771,0,0,1,1.074-2.259.665.665,0,0,0-.039-.718L47.168,9.842a2,2,0,0,1,.042-2.4,18.108,18.108,0,0,1,1.3-1.427c.515-.506.981-.93,1.43-1.3a1.99,1.99,0,0,1,2.4-.048l1.687,1.2a.663.663,0,0,0,.712.036A17.228,17.228,0,0,1,58.6,4.3a.668.668,0,0,0,.479-.533L59.4,1.74A1.968,1.968,0,0,1,61.136.08c.628-.06,1.28-.09,1.921-.09s1.292.03,1.933.09a1.969,1.969,0,0,1,1.738,1.663l.332,2.025a.664.664,0,0,0,.476.533A17.41,17.41,0,0,1,71.4,5.908a.663.663,0,0,0,.712-.036l1.678-1.2a1.97,1.97,0,0,1,1.176-.386,2,2,0,0,1,1.212.416c.536.437,1.029.9,1.436,1.3a19.036,19.036,0,0,1,1.292,1.43,2,2,0,0,1,.048,2.4l-1.209,1.693a.665.665,0,0,0-.036.715A16.9,16.9,0,0,1,79.32,16.1a.668.668,0,0,0,.533.479l2.025.332a1.977,1.977,0,0,1,1.663,1.732c.072.754.1,1.352.1,1.927s-.033,1.164-.1,1.921A1.99,1.99,0,0,1,81.9,24.22l-2.046.335a.663.663,0,0,0-.533.479A16.927,16.927,0,0,1,77.71,28.9a.665.665,0,0,0,.039.718l1.206,1.672a2,2,0,0,1-.021,2.372c-.443.544-.9,1.029-1.3,1.433-.491.473-.96.9-1.436,1.3a1.992,1.992,0,0,1-2.411.054L72.1,35.241a.672.672,0,0,0-.386-.123.64.64,0,0,0-.32.084,17.329,17.329,0,0,1-2.737,1.215.665.665,0,0,0-.395.9,28.449,28.449,0,0,1,1.628,4.76.663.663,0,0,0,.539.5L74,43.154A2.872,2.872,0,0,1,76.385,45.6v.03a30.805,30.805,0,0,1,0,6.516,2.878,2.878,0,0,1-2.39,2.474l-3.569.586a.662.662,0,0,0-.539.5,28.446,28.446,0,0,1-3.4,8.2.661.661,0,0,0,.027.733l2.109,2.95a2.872,2.872,0,0,1-.03,3.42,32.76,32.76,0,0,1-2.214,2.435c-.712.712-1.475,1.406-2.4,2.184a2.878,2.878,0,0,1-1.771.613,2.768,2.768,0,0,1-1.687-.55l-2.95-2.112a.657.657,0,0,0-.386-.123.664.664,0,0,0-.347.1,28.53,28.53,0,0,1-8.2,3.4.666.666,0,0,0-.5.538l-.586,3.569a2.869,2.869,0,0,1-2.471,2.39,31,31,0,0,1-3.255.174Zm-4.254-2.818a1.352,1.352,0,0,0,1.119,1.143c.012,0,.021,0,.033,0a28.863,28.863,0,0,0,6.211,0,.231.231,0,0,0,.045-.006,1.337,1.337,0,0,0,1.095-1.14l.739-4.5a.76.76,0,0,1,.589-.616,26.954,26.954,0,0,0,9.421-3.91.75.75,0,0,1,.413-.123.732.732,0,0,1,.437.141l3.716,2.66a1.347,1.347,0,0,0,1.639.006l.027-.021c.877-.739,1.595-1.394,2.262-2.064.733-.727,1.436-1.5,2.094-2.3.012-.015.027-.033.039-.051a1.349,1.349,0,0,0-.036-1.556l-2.675-3.737a.763.763,0,0,1-.018-.853,27.043,27.043,0,0,0,3.91-9.421.76.76,0,0,1,.616-.589l4.512-.742a1.375,1.375,0,0,0,1.131-1.1l.009-.054a29.407,29.407,0,0,0,0-6.2.076.076,0,0,0-.006-.036,1.336,1.336,0,0,0-1.14-1.116l-4.506-.739a.76.76,0,0,1-.616-.589,26.954,26.954,0,0,0-3.91-9.421.759.759,0,0,1,.018-.85L67.4,29.306a1.356,1.356,0,0,0,.033-1.6.339.339,0,0,0-.03-.039,26.759,26.759,0,0,0-2.076-2.28,30.86,30.86,0,0,0-2.31-2.1.428.428,0,0,0-.045-.033,1.339,1.339,0,0,0-1.577.042l-3.719,2.666a.752.752,0,0,1-.85.018,27.044,27.044,0,0,0-9.421-3.91.756.756,0,0,1-.589-.616l-.739-4.506a1.346,1.346,0,0,0-1.119-1.14c-.012,0-.021,0-.033,0a28.864,28.864,0,0,0-6.211,0,.231.231,0,0,0-.045.006,1.337,1.337,0,0,0-1.095,1.134l-.739,4.506a.76.76,0,0,1-.589.616,27.01,27.01,0,0,0-9.421,3.91.75.75,0,0,1-.413.123.738.738,0,0,1-.437-.141L22.258,23.3a1.351,1.351,0,0,0-1.63-.009l-.024.018c-.79.649-1.553,1.346-2.274,2.07a27.33,27.33,0,0,0-2.094,2.3c-.012.018-.027.033-.039.051a1.354,1.354,0,0,0,.051,1.565l2.663,3.722a.759.759,0,0,1,.018.85,27.043,27.043,0,0,0-3.91,9.421.76.76,0,0,1-.616.589l-4.5.739a1.352,1.352,0,0,0-1.143,1.119c0,.012,0,.021,0,.033a29.123,29.123,0,0,0,0,6.211.233.233,0,0,0,.012.066,1.386,1.386,0,0,0,1.128,1.071l4.509.739a.76.76,0,0,1,.616.589,26.954,26.954,0,0,0,3.91,9.421.759.759,0,0,1-.018.85l-2.657,3.719a1.369,1.369,0,0,0-.009,1.627c.006.009.015.018.021.027.649.787,1.346,1.553,2.07,2.271.661.664,1.394,1.331,2.307,2.1a.43.43,0,0,0,.075.054,1.348,1.348,0,0,0,1.541-.075l3.719-2.66a.752.752,0,0,1,.85-.018,27.044,27.044,0,0,0,9.421,3.91.76.76,0,0,1,.589.616l.739,4.5ZM71.789,33.33a.73.73,0,0,1,.44.144l2.334,1.681a.662.662,0,0,0,.389.126.67.67,0,0,0,.437-.162c.416-.359.811-.724,1.176-1.08.006-.006.012-.009.015-.015.326-.338.706-.739,1.053-1.152a.661.661,0,0,0,.03-.817l-1.681-2.334a.748.748,0,0,1-.021-.85,15.4,15.4,0,0,0,2.121-5.08.75.75,0,0,1,.613-.577l2.815-.461a.661.661,0,0,0,.553-.6c.054-.61.078-1.119.078-1.6s-.024-1-.078-1.6a.661.661,0,0,0-.553-.6L78.694,17.9a.75.75,0,0,1-.613-.58,15.365,15.365,0,0,0-2.121-5.08.748.748,0,0,1,.021-.85l1.681-2.334a.665.665,0,0,0-.03-.814,15.509,15.509,0,0,0-1.086-1.182c-.338-.329-.742-.712-1.167-1.071a.656.656,0,0,0-.428-.156.679.679,0,0,0-.386.123L72.229,7.631a.745.745,0,0,1-.437.141.76.76,0,0,1-.407-.12A15.7,15.7,0,0,0,66.3,5.543a.743.743,0,0,1-.577-.613l-.461-2.815a.661.661,0,0,0-.6-.553c-.53-.045-1.068-.069-1.6-.069s-1.068.024-1.6.069a.664.664,0,0,0-.6.553l-.461,2.815a.75.75,0,0,1-.58.613,15.7,15.7,0,0,0-5.083,2.109.76.76,0,0,1-.407.12.739.739,0,0,1-.437-.141l-2.34-1.672a.667.667,0,0,0-.814.033c-.4.341-.826.739-1.182,1.086-.365.365-.733.766-1.071,1.167a.665.665,0,0,0-.03.817l1.681,2.334a.748.748,0,0,1,.021.85,15.4,15.4,0,0,0-2.121,5.08.7.7,0,0,1-.132.263.67.67,0,0,0-.132.518l.356,2.172a.66.66,0,0,0,.494.536,28.578,28.578,0,0,1,2.9.892.653.653,0,0,0,.619-.087.663.663,0,0,0,.272-.562c0-.087-.012-.177-.021-.263a2.272,2.272,0,0,1-.015-.23,10.666,10.666,0,0,1,21.331,0,10.533,10.533,0,0,1-4.535,8.7.679.679,0,0,0-.242.308,2.82,2.82,0,0,1-.335.628l-2.106,2.941a.67.67,0,0,0-.024.739c.126.2.242.416.365.643.057.108.117.212.174.32a.663.663,0,0,0,.58.341.708.708,0,0,0,.206-.033,15.267,15.267,0,0,0,3.563-1.693.762.762,0,0,1,.41-.12ZM8.694,5.839a.656.656,0,0,0-.428.156c-.4.341-.826.739-1.182,1.086-.365.365-.733.766-1.071,1.167a.665.665,0,0,0-.03.817L7.665,11.4a.748.748,0,0,1,.021.85,15.4,15.4,0,0,0-2.121,5.08.75.75,0,0,1-.613.577l-2.815.461a.664.664,0,0,0-.553.6c-.054.613-.078,1.122-.078,1.6s.024,1,.078,1.6a.661.661,0,0,0,.553.6l2.815.461a.75.75,0,0,1,.613.58,15.366,15.366,0,0,0,2.121,5.08.748.748,0,0,1-.021.85L5.983,32.064a.669.669,0,0,0,.03.817c.338.4.721.808,1.086,1.182l.015.015c.359.347.745.7,1.149,1.047a.656.656,0,0,0,.434.162.669.669,0,0,0,.389-.126l2.331-1.678a.748.748,0,0,1,.847-.024,15.283,15.283,0,0,0,3.56,1.687.7.7,0,0,0,.2.033.662.662,0,0,0,.577-.335c.069-.123.138-.248.206-.374.114-.209.221-.407.338-.6a.661.661,0,0,0-.027-.733l-2.112-2.95a2.884,2.884,0,0,1-.332-.622.663.663,0,0,0-.242-.308,10.552,10.552,0,0,1-4.529-8.691,10.666,10.666,0,1,1,21.331,0,1.67,1.67,0,0,1-.015.191c-.009.1-.021.209-.021.329a.664.664,0,0,0,.284.544.672.672,0,0,0,.38.12.6.6,0,0,0,.227-.042A28.867,28.867,0,0,1,35,20.815a.66.66,0,0,0,.494-.536l.356-2.172a.67.67,0,0,0-.132-.518.689.689,0,0,1-.135-.278,15.325,15.325,0,0,0-2.118-5.065.748.748,0,0,1,.021-.85l1.681-2.334a.665.665,0,0,0-.03-.814,15.508,15.508,0,0,0-1.086-1.182c-.341-.329-.745-.712-1.167-1.071a.656.656,0,0,0-.428-.156.679.679,0,0,0-.386.123L29.735,7.637a.745.745,0,0,1-.437.141.76.76,0,0,1-.407-.12,15.7,15.7,0,0,0-5.083-2.109.743.743,0,0,1-.577-.613L22.77,2.12a.661.661,0,0,0-.6-.553c-.53-.045-1.068-.069-1.6-.069s-1.068.024-1.6.069a.664.664,0,0,0-.6.553l-.461,2.815a.75.75,0,0,1-.58.613,15.7,15.7,0,0,0-5.083,2.109.752.752,0,0,1-.407.12.739.739,0,0,1-.437-.141L9.071,5.964a.657.657,0,0,0-.386-.123ZM68.576,26.745c.018.03.039.063.06.093a.66.66,0,0,0,.491.278h.051a.663.663,0,0,0,.476-.2,9.032,9.032,0,0,0,2.573-6.36,9.161,9.161,0,1,0-18.088,1.939.657.657,0,0,0,.353.446c.933.458,1.681.865,2.349,1.274a.664.664,0,0,0,.347.1.672.672,0,0,0,.386-.123l2.95-2.112a2.825,2.825,0,0,1,1.687-.556,2.868,2.868,0,0,1,1.729.589,31.008,31.008,0,0,1,2.435,2.214,28.084,28.084,0,0,1,2.187,2.4l.012.018ZM20.535,11.227a9.208,9.208,0,0,0-6.543,15.692.671.671,0,0,0,.473.2h.048A.653.653,0,0,0,15,26.847c.024-.033.048-.069.069-.1v-.006a28.694,28.694,0,0,1,2.208-2.42c.766-.772,1.574-1.5,2.405-2.19a2.862,2.862,0,0,1,1.75-.6,2.791,2.791,0,0,1,1.684.55l2.953,2.112a.657.657,0,0,0,.386.123.671.671,0,0,0,.344-.1c.7-.425,1.445-.829,2.354-1.277a.648.648,0,0,0,.353-.449,9.215,9.215,0,0,0-8.975-11.27Z" transform="translate(0 0.01)"/></g></svg>