<svg xmlns="http://www.w3.org/2000/svg" width="82.257" height="82.226" viewBox="0 0 82.257 82.226"><defs><style>.a{fill:#fff;stroke:#fff;}</style></defs><g transform="translate(0.522 0.5)"><path class="a" d="M3.485,81.215A3.483,3.483,0,0,1,0,77.735v-24.5a3.483,3.483,0,0,1,1.8-3.051l15.442-8.489a.646.646,0,0,0,.331-.5l2.339-22.566a.64.64,0,0,0-.183-.52.651.651,0,0,0-.459-.192h-.061c-.195.017-.4.026-.593.026a6.393,6.393,0,0,1-2.9-.7.66.66,0,0,0-.293-.07.649.649,0,0,0-.459.192,6.531,6.531,0,0,1-4.622,1.961,6.27,6.27,0,0,1-3.937-1.4.651.651,0,0,0-.407-.145.624.624,0,0,0-.163.02,4.5,4.5,0,0,1-1.116.142,4.454,4.454,0,0,1-2.223-.6,4.805,4.805,0,0,1-2.4-3.193A4.881,4.881,0,0,1,.885,10.3a.65.65,0,0,0,.029-.7,6.594,6.594,0,0,1-.66-5.169A6.123,6.123,0,0,1,4.444.251,6.262,6.262,0,0,1,9.578.966a.635.635,0,0,0,.343.1A.64.64,0,0,0,10.3.937,4.79,4.79,0,0,1,15.81.809a.636.636,0,0,0,.357.107A.618.618,0,0,0,16.46.844a7.783,7.783,0,0,1,3.524-.851,7.584,7.584,0,0,1,4.991,1.871.642.642,0,0,0,.424.16.632.632,0,0,0,.279-.064,6.015,6.015,0,0,1,5.474.142.647.647,0,0,0,.308.078.639.639,0,0,0,.474-.209A6.189,6.189,0,0,1,34.692.24a6.289,6.289,0,0,1,1.761-.25,6.367,6.367,0,0,1,3.376.967.643.643,0,0,0,.723-.026A4.816,4.816,0,0,1,46.066.809a.636.636,0,0,0,.357.107.648.648,0,0,0,.291-.07,7.772,7.772,0,0,1,8.527,1.017.642.642,0,0,0,.418.154.658.658,0,0,0,.276-.061,6.191,6.191,0,0,1,7.412,9.521.646.646,0,0,0-.078.689,2.071,2.071,0,0,1,.2.721l3.01,29.141a.651.651,0,0,0,.337.5.667.667,0,0,0,.305.076.6.6,0,0,0,.3-.076l9.681-5.1a2.815,2.815,0,0,1,4.129,2.487V77.729a3.483,3.483,0,0,1-3.481,3.481H3.485Zm22-6.874a.644.644,0,0,0-.645.645v4.126a.644.644,0,0,0,.645.645H77.744a2.022,2.022,0,0,0,2.019-2.019V74.986a.644.644,0,0,0-.645-.645H55.738a.729.729,0,0,1,0-1.459H79.115a.644.644,0,0,0,.645-.645v-32.3a1.353,1.353,0,0,0-1.354-1.354,1.371,1.371,0,0,0-.633.157L54.7,50.883a.727.727,0,0,1-.34.084.746.746,0,0,1-.378-.1.726.726,0,0,1-.352-.625v-10.3a1.362,1.362,0,0,0-.654-1.159,1.343,1.343,0,0,0-.7-.195,1.371,1.371,0,0,0-.633.157L28.576,50.886a.736.736,0,0,1-.34.084.746.746,0,0,1-.378-.1.726.726,0,0,1-.352-.625V40.014a1.347,1.347,0,0,0-.668-1.168,1.4,1.4,0,0,0-.68-.186,1.363,1.363,0,0,0-.662.171L2.512,51.462a2.022,2.022,0,0,0-1.046,1.772v19a.644.644,0,0,0,.645.645h5.5a.644.644,0,0,0,.645-.645V69.484A3.483,3.483,0,0,1,11.736,66h9.626a3.483,3.483,0,0,1,3.481,3.481v2.751a.644.644,0,0,0,.645.645h2.751a.729.729,0,1,1,0,1.458H25.487ZM11.736,67.464a2.022,2.022,0,0,0-2.019,2.019v9.626a.644.644,0,0,0,.645.645H22.739a.644.644,0,0,0,.645-.645V69.484a2.022,2.022,0,0,0-2.019-2.019H11.739ZM2.111,74.341a.644.644,0,0,0-.645.645v2.751A2.024,2.024,0,0,0,3.488,79.76H7.613a.644.644,0,0,0,.645-.645V74.989a.644.644,0,0,0-.645-.645H2.108ZM52.284,37.115A2.812,2.812,0,0,1,55.1,39.927v8.025a.642.642,0,0,0,.944.569L64.8,43.913a.641.641,0,0,0,.34-.636L63.292,25.409a.646.646,0,0,0-.642-.578H51.578a.646.646,0,0,0-.642.578L49.744,36.952a.643.643,0,0,0,.639.712.611.611,0,0,0,.3-.076l.285-.151a2.831,2.831,0,0,1,1.31-.325Zm-26.128.078A2.81,2.81,0,0,1,28.968,40v7.949a.644.644,0,0,0,.645.645.611.611,0,0,0,.3-.076l4.849-2.551a.641.641,0,0,0,.34-.636L33.038,25.412a.646.646,0,0,0-.642-.578H21.315a.646.646,0,0,0-.642.578L19.22,39.457a.649.649,0,0,0,.285.6.636.636,0,0,0,.357.108.65.65,0,0,0,.311-.078l4.62-2.542A2.807,2.807,0,0,1,26.15,37.2ZM34.448,17.9a.645.645,0,0,0-.642.709l2.635,25.471a.651.651,0,0,0,.337.5.667.667,0,0,0,.305.076.635.635,0,0,0,.3-.076l10.384-5.465a.641.641,0,0,0,.34-.506l2.063-19.995a.64.64,0,0,0-.183-.52.651.651,0,0,0-.459-.192h-.058c-.192.017-.389.026-.581.026a6.478,6.478,0,0,1-2.9-.689.643.643,0,0,0-.747.119,6.657,6.657,0,0,1-4.64,1.952,6.271,6.271,0,0,1-3.931-1.4.657.657,0,0,0-.407-.145.609.609,0,0,0-.163.02,4.191,4.191,0,0,1-1.058.137,4.423,4.423,0,0,1-.52-.032.766.766,0,0,0-.081-.006Zm17.845.052a.646.646,0,0,0-.642.578l-.424,4.126a.647.647,0,0,0,.163.5.64.64,0,0,0,.479.212H62.374a.644.644,0,0,0,.642-.709l-.427-4.126a.646.646,0,0,0-.642-.578H52.292Zm-30.254,0a.646.646,0,0,0-.642.578l-.436,4.126a.644.644,0,0,0,.642.712H32.12a.644.644,0,0,0,.642-.709l-.427-4.126a.646.646,0,0,0-.642-.578H22.036Zm-15.956-1.6a2.031,2.031,0,0,1,1.261.442,4.848,4.848,0,0,0,6.447-.4l.015-.015a2.167,2.167,0,0,1,2.595-.439c.017.009.035.017.049.023a4.844,4.844,0,0,0,2.159.511,4.9,4.9,0,0,0,1.107-.128.647.647,0,0,0,.494-.561l.3-2.905a2.08,2.08,0,0,1,2.077-1.9H31.1a1.387,1.387,0,0,0,.145.012.633.633,0,0,0,.468-.2A4.722,4.722,0,0,0,29.75,3.073a4.811,4.811,0,0,0-3.492.189,2.091,2.091,0,0,1-.892.2,2.076,2.076,0,0,1-1.357-.506,6.257,6.257,0,0,0-6.874-.8,2.108,2.108,0,0,1-.962.235A2.06,2.06,0,0,1,15,2.024l-.015-.009a3.442,3.442,0,0,0-3.855.073l-.015.009a2.067,2.067,0,0,1-2.33.1,4.777,4.777,0,0,0-3.948-.537A4.716,4.716,0,0,0,1.663,4.827a4.809,4.809,0,0,0,.5,3.9,2.191,2.191,0,0,1-.087,2.417,3.439,3.439,0,0,0-.535,2.728A3.3,3.3,0,0,0,3.191,16.06a3.43,3.43,0,0,0,2.429.352A2.086,2.086,0,0,1,6.082,16.359Zm30.291-.009a1.951,1.951,0,0,1,1.229.439l.012.009a4.873,4.873,0,0,0,6.435-.4l.017-.017a2.144,2.144,0,0,1,2.6-.424c.009,0,.015.009.023.012a4.964,4.964,0,0,0,2.179.506,5.025,5.025,0,0,0,1.1-.125.643.643,0,0,0,.5-.564l.3-2.905a2.078,2.078,0,0,1,2.077-1.9h8.51a1.032,1.032,0,0,0,.151.012.638.638,0,0,0,.468-.2,4.737,4.737,0,0,0-5.453-7.531,2.095,2.095,0,0,1-2.246-.3,6.195,6.195,0,0,0-6.906-.811,2.111,2.111,0,0,1-.944.224,2.093,2.093,0,0,1-1.162-.352,3.409,3.409,0,0,0-3.89.07,2.061,2.061,0,0,1-1.232.407,2.052,2.052,0,0,1-1.1-.314,4.844,4.844,0,0,0-3.963-.546,4.643,4.643,0,0,0-1.955,1.194.645.645,0,0,0-.038.86,6.139,6.139,0,0,1,1.27,2.693,6.254,6.254,0,0,1-1.273,5.084.64.64,0,0,0-.076.686,2.088,2.088,0,0,1,.2.721l.3,2.818a.644.644,0,0,0,.413.535,3.556,3.556,0,0,0,1.275.235,3.669,3.669,0,0,0,.691-.067.085.085,0,0,0,.026-.006,2,2,0,0,1,.456-.055Zm16.482-3.9a.646.646,0,0,0-.642.578l-.285,2.751a.647.647,0,0,0,.163.5.64.64,0,0,0,.479.212h9.094a.644.644,0,0,0,.642-.709l-.285-2.751a.646.646,0,0,0-.642-.578H52.853Zm-30.254,0a.646.646,0,0,0-.642.578l-.285,2.751a.647.647,0,0,0,.163.5.64.64,0,0,0,.479.212h9.1a.644.644,0,0,0,.642-.709l-.285-2.751a.646.646,0,0,0-.642-.578H22.6Z" transform="translate(0.002 0.01)"/><path class="a" d="M132.675,208.52a4.855,4.855,0,1,1,4.855-4.855,4.86,4.86,0,0,1-4.855,4.855Zm0-8.251a3.395,3.395,0,1,0,3.4,3.4A3.4,3.4,0,0,0,132.675,200.268Z" transform="translate(-90.683 -141.045)"/><path class="a" d="M112.536,196.629a12.943,12.943,0,0,1-1.9-.142.738.738,0,0,1-.593-.5l-.639-2.022a.646.646,0,0,0-.4-.413,10.536,10.536,0,0,1-1.058-.442.644.644,0,0,0-.282-.064.629.629,0,0,0-.3.073l-1.886.979a.724.724,0,0,1-.337.084.714.714,0,0,1-.43-.142,13,13,0,0,1-2.693-2.693.743.743,0,0,1-.061-.77l.973-1.888a.646.646,0,0,0,.009-.575,10.832,10.832,0,0,1-.442-1.058.646.646,0,0,0-.413-.4l-2.022-.642a.735.735,0,0,1-.5-.59,12.6,12.6,0,0,1,0-3.8.731.731,0,0,1,.5-.59l2.022-.642a.646.646,0,0,0,.413-.4,10.836,10.836,0,0,1,.442-1.058.652.652,0,0,0-.009-.578l-.979-1.889a.73.73,0,0,1,.061-.77,12.99,12.99,0,0,1,2.693-2.69.723.723,0,0,1,.433-.142.758.758,0,0,1,.337.081l1.891.979a.629.629,0,0,0,.3.073.644.644,0,0,0,.282-.064,10.1,10.1,0,0,1,1.055-.439.644.644,0,0,0,.4-.413l.639-2.022a.739.739,0,0,1,.59-.5,13.008,13.008,0,0,1,1.9-.142,12.618,12.618,0,0,1,1.9.142.738.738,0,0,1,.593.5l.645,2.031a.644.644,0,0,0,.4.413,10.469,10.469,0,0,1,1.055.439.644.644,0,0,0,.282.064.629.629,0,0,0,.3-.073l1.886-.979a.737.737,0,0,1,.334-.081.723.723,0,0,1,.433.142,13.3,13.3,0,0,1,2.69,2.687.731.731,0,0,1,.058.767l-.982,1.888a.652.652,0,0,0-.009.578,10.828,10.828,0,0,1,.442,1.058.646.646,0,0,0,.413.4l2.022.642a.735.735,0,0,1,.5.59,12.6,12.6,0,0,1,0,3.8.731.731,0,0,1-.5.59l-2.022.642a.646.646,0,0,0-.413.4,10.828,10.828,0,0,1-.442,1.058.646.646,0,0,0,.009.575l.979,1.891a.741.741,0,0,1-.058.773,12.7,12.7,0,0,1-1.246,1.438,12.513,12.513,0,0,1-1.441,1.249.729.729,0,0,1-.433.142h0a.736.736,0,0,1-.334-.081l-1.889-.982a.63.63,0,0,0-.3-.073.643.643,0,0,0-.282.064,10.538,10.538,0,0,1-1.058.442.646.646,0,0,0-.4.413l-.639,2.022a.739.739,0,0,1-.59.5,12.618,12.618,0,0,1-1.9.142Zm-4.872-5.224a.722.722,0,0,1,.363.1,9.254,9.254,0,0,0,2.057.86.722.722,0,0,1,.494.482l.584,1.845a.644.644,0,0,0,.567.447c.267.02.537.032.8.032s.538-.012.8-.032a.643.643,0,0,0,.564-.447l.584-1.845a.726.726,0,0,1,.5-.482,9.29,9.29,0,0,0,2.054-.86.744.744,0,0,1,.366-.1.758.758,0,0,1,.337.081l1.726.9a.648.648,0,0,0,.721-.084c.2-.171.4-.357.59-.552s.369-.386.537-.575a.645.645,0,0,0,.09-.723l-.9-1.729a.723.723,0,0,1,.015-.7,9.29,9.29,0,0,0,.86-2.054.724.724,0,0,1,.479-.494l1.848-.587a.647.647,0,0,0,.447-.567c.02-.273.032-.54.032-.8s-.012-.529-.032-.8a.647.647,0,0,0-.447-.567l-1.845-.584a.718.718,0,0,1-.479-.494,9.313,9.313,0,0,0-.86-2.054.723.723,0,0,1-.015-.7l.9-1.726a.649.649,0,0,0-.087-.723c-.174-.2-.357-.4-.543-.581s-.383-.369-.581-.543a.642.642,0,0,0-.424-.16.629.629,0,0,0-.3.073l-1.729.9a.737.737,0,0,1-.334.081.722.722,0,0,1-.363-.1,9.291,9.291,0,0,0-2.054-.86.721.721,0,0,1-.5-.482l-.584-1.845a.643.643,0,0,0-.567-.447c-.267-.02-.538-.032-.8-.032s-.537.012-.8.032a.65.65,0,0,0-.567.447l-.584,1.845a.732.732,0,0,1-.5.482,9.339,9.339,0,0,0-2.051.857.744.744,0,0,1-.366.1.758.758,0,0,1-.337-.081l-1.726-.9a.647.647,0,0,0-.723.087c-.195.169-.389.352-.581.546s-.369.381-.543.581a.644.644,0,0,0-.087.721l.9,1.729a.723.723,0,0,1-.015.7,9.176,9.176,0,0,0-.86,2.057.724.724,0,0,1-.479.494l-1.848.584a.647.647,0,0,0-.447.567c-.02.27-.032.54-.032.8s.009.529.032.8a.647.647,0,0,0,.447.567l1.845.584a.718.718,0,0,1,.479.494,9.312,9.312,0,0,0,.86,2.054.723.723,0,0,1,.015.7l-.9,1.726a.649.649,0,0,0,.087.723c.174.2.357.4.543.581s.384.369.581.543a.642.642,0,0,0,.424.16.63.63,0,0,0,.3-.073l1.729-.9a.737.737,0,0,1,.334-.081Z" transform="translate(-70.538 -120.904)"/></g></svg>