<svg xmlns="http://www.w3.org/2000/svg" width="82.523" height="83.346" viewBox="0 0 82.523 83.346"><defs><style>.a{fill:#fff;stroke:#fff;}</style></defs><g transform="translate(0.503 0.532)"><g transform="translate(0 0)"><path class="a" d="M148.2,389.238a1.044,1.044,0,0,0-1.475-.006l-14.6,14.466a1.043,1.043,0,0,0,.735,1.783,1.031,1.031,0,0,0,.734-.3l7.264-7.2a22.344,22.344,0,0,0,10.374,2.947,14.174,14.174,0,0,0,3.6-.451,16.941,16.941,0,0,0,8.124-5.286,1.043,1.043,0,1,0-1.544-1.4,14.9,14.9,0,0,1-7.11,4.671c-4.831,1.269-9.931-.987-11.9-2.013l5.787-5.735a1.044,1.044,0,0,0,.006-1.475Z" transform="translate(-111.195 -328.084)"/><path class="a" d="M269.366,328.358a1.043,1.043,0,0,0-1.474.064,14.815,14.815,0,0,1-7.03,4.587c-4.814,1.266-9.9-.97-11.91-2.02a20.7,20.7,0,0,1,6.023-6.15,1.043,1.043,0,0,0-1.1-1.771,23,23,0,0,0-7.29,7.81,1.043,1.043,0,0,0,.361,1.374,22.591,22.591,0,0,0,10.846,3.226,14.176,14.176,0,0,0,3.6-.451,16.855,16.855,0,0,0,8.038-5.2,1.043,1.043,0,0,0-.064-1.474Z" transform="translate(-207.9 -272.392)"/><path class="a" d="M289.605,140.035a1.028,1.028,0,0,0,.382-.074,1.043,1.043,0,0,0,.587-1.353c-.992-2.516-1.97-6.273-.987-9.878,1.311-4.8,5.793-8.09,7.706-9.305.951,1.854,2.882,6.312,2.162,10.766a1.043,1.043,0,0,0,2.059.332c.862-5.344-1.524-10.5-2.528-12.365l5.976-5.924a1.043,1.043,0,1,0-1.469-1.482l-6.172,6.118a1.066,1.066,0,0,0-.155.2c-.591.314-7.719,4.235-9.595,11.109-1.133,4.158-.048,8.381,1.061,11.19a1.044,1.044,0,0,0,.971.66Z" transform="translate(-242.176 -93.17)"/><path class="a" d="M225.439,239.863a17.322,17.322,0,0,0,.615,9.975,1.042,1.042,0,0,0,.989.712,1.024,1.024,0,0,0,.332-.055,1.043,1.043,0,0,0,.657-1.32,13.437,13.437,0,0,1,4.274-15.937,1.043,1.043,0,0,0-1.377-1.568A17.23,17.23,0,0,0,225.439,239.863Z" transform="translate(-189.767 -195.208)"/><path class="a" d="M339.671,226.87l-5.978,5.924a22.274,22.274,0,0,0-10.133-2.8,14.121,14.121,0,0,0-3.587.449c-7.037,1.852-11.043,9.214-11.211,9.527a1.041,1.041,0,0,0,.361,1.372,22.648,22.648,0,0,0,10.86,3.223,14.121,14.121,0,0,0,3.587-.449c6.882-1.812,10.863-8.891,11.192-9.493a1.06,1.06,0,0,0,.2-.153l6.172-6.117a1.043,1.043,0,0,0-1.469-1.482ZM323.04,242.1a12.021,12.021,0,0,1-3.055.38,20.234,20.234,0,0,1-8.853-2.4c1.23-1.9,4.545-6.348,9.374-7.619a12.033,12.033,0,0,1,3.057-.38,20.229,20.229,0,0,1,8.852,2.4c-1.23,1.9-4.545,6.348-9.372,7.62Z" transform="translate(-260.353 -191.124)"/><path class="a" d="M389.332,123.249a1.044,1.044,0,0,0,1.475.006l12.526-12.415a1.043,1.043,0,0,0-1.469-1.482l-12.526,12.415A1.044,1.044,0,0,0,389.332,123.249Z" transform="translate(-328.167 -91.994)"/><path class="a" d="M439.913,147.759l-12.525,12.414a1.043,1.043,0,0,0,.735,1.783,1.031,1.031,0,0,0,.734-.3l12.525-12.414a1.043,1.043,0,1,0-1.469-1.482Z" transform="translate(-360.264 -124.387)"/><path class="a" d="M48.787,365.5,43.38,385.331a1.044,1.044,0,0,0,2.013.551l2.691-9.865c2.048-.017,8.906-.418,13.356-4.826a17.691,17.691,0,0,0,4.5-9.172,1.043,1.043,0,0,0-2.048-.4,15.646,15.646,0,0,1-3.92,8.086c-3.539,3.506-9.091,4.107-11.314,4.2l2.143-7.86a1.043,1.043,0,0,0-2.013-.549Z" transform="translate(-36.56 -304.336)"/><path class="a" d="M115.045,100.883c-5.167,5.122-4.956,13.5-4.945,13.858a1.044,1.044,0,0,0,1,1.007s.139.006.394.006c2.026,0,8.988-.349,13.506-4.828,5.108-5.061,4.961-13.3,4.947-13.836a1.056,1.056,0,0,0,.1-.217l3.213-11.782a1.043,1.043,0,0,0-2.013-.549L128.1,96.061C125.647,96.118,119.277,96.69,115.045,100.883Zm8.485,8.562c-3.553,3.523-9.125,4.114-11.323,4.208.117-2.265.771-7.783,4.307-11.287,3.554-3.523,9.128-4.114,11.325-4.207-.113,2.262-.76,7.772-4.308,11.287Z" transform="translate(-92.87 -70.667)"/><path class="a" d="M90.89,278.962a1.041,1.041,0,0,0-1.411.429A22.963,22.963,0,0,0,87.07,289.8a1.041,1.041,0,0,0,1,1.007c.042,0,.194.008.44.008,1.84,0,8.9-.308,13.46-4.828a17.408,17.408,0,0,0,4.488-9.108,1.043,1.043,0,1,0-2.046-.4A15.632,15.632,0,0,1,100.5,284.5c-3.536,3.5-9.06,4.108-11.325,4.2a20.622,20.622,0,0,1,2.143-8.335,1.042,1.042,0,0,0-.427-1.411Z" transform="translate(-73.442 -232.512)"/><path class="a" d="M46.808,67.984c1.1,4.166,4.147,7.282,6.511,9.163a1.043,1.043,0,0,0,1.3-1.633c-2.118-1.683-4.842-4.449-5.793-8.061-1.267-4.814.97-9.9,2.02-11.908,1.752,1.134,5.659,4.039,7.257,8.24a1.043,1.043,0,0,0,1.949-.742c-1.924-5.061-6.569-8.329-8.371-9.444l3.14-11.516a1.043,1.043,0,0,0-2.013-.549L49.592,53.316a1.006,1.006,0,0,0-.033.253c-.363.582-4.565,7.533-2.753,14.415Z" transform="translate(-39.1 -34.385)"/><path class="a" d="M29.763,249.22a1.044,1.044,0,0,0,1.347-1.594,15.843,15.843,0,0,1-5.283-7.642,15.654,15.654,0,0,1,.731-8.967,1.043,1.043,0,1,0-1.965-.7,17.69,17.69,0,0,0-.784,10.2A17.9,17.9,0,0,0,29.763,249.22Z" transform="translate(-19.706 -193.7)"/><path class="a" d="M6.317,336.626a1.043,1.043,0,0,0,1.349-1.591,15.752,15.752,0,0,1-5.211-7.581,15.443,15.443,0,0,1,.61-8.62,1.044,1.044,0,0,0-1.977-.668,16.994,16.994,0,0,0-.651,9.818,17.785,17.785,0,0,0,5.879,8.64Z" transform="translate(0.016 -267.792)"/><path class="a" d="M120.363,22.456a1.041,1.041,0,0,0,1.281-.731L127.21,1.312A1.043,1.043,0,0,0,125.2.762L119.63,21.175A1.044,1.044,0,0,0,120.363,22.456Z" transform="translate(-100.881 0.007)"/><path class="a" d="M172.513,36.685a1.041,1.041,0,0,0,1.281-.731L179.36,15.54a1.043,1.043,0,0,0-2.013-.548L171.78,35.405a1.044,1.044,0,0,0,.732,1.281Z" transform="translate(-144.873 -11.997)"/></g></g></svg>