<svg xmlns="http://www.w3.org/2000/svg" width="18" height="18.418" viewBox="0 0 18 18.418">
  <g id="_7935ec95c421cee6d86eb22ecd12b5bb" data-name="7935ec95c421cee6d86eb22ecd12b5bb" transform="translate(-6.295 -0.502)">
    <path id="Tracciato_12582" data-name="Tracciato 12582" d="M24.295,15.688a3.231,3.231,0,0,1-6.462,0c0-.058.005-.116.009-.174l-6.4-3.261A3.23,3.23,0,1,1,11.62,7.2l6.227-3.175c-.009-.1-.015-.193-.015-.292A3.235,3.235,0,1,1,18.979,6.2L12.743,9.379c.008.092.014.185.014.28a3.283,3.283,0,0,1-.041.492L18.893,13.3a3.227,3.227,0,0,1,5.4,2.389Z" transform="translate(0 0)"/>
  </g>
</svg>
