<?xml version="1.0" encoding="utf-8"?>
<!-- Generator: Adobe Illustrator 27.8.1, SVG Export Plug-In . SVG Version: 6.00 Build 0)  -->
<svg version="1.1" id="Layer_1" xmlns="http://www.w3.org/2000/svg" xmlns:xlink="http://www.w3.org/1999/xlink" x="0px" y="0px"
	 viewBox="0 0 18 18.4" style="enable-background:new 0 0 18 18.4;" xml:space="preserve">
<style type="text/css">
	.st0{fill:#98680E;}
</style>
<g id="_7935ec95c421cee6d86eb22ecd12b5bb" transform="translate(-6.295 -0.502)">
	<path id="Tracciato_12582" class="st0" d="M24.3,15.7c0,1.8-1.4,3.2-3.2,3.2c-1.8,0-3.2-1.4-3.2-3.2c0-0.1,0-0.1,0-0.2l-6.4-3.3
		C10,13.3,8,13,6.9,11.6S6.2,8.1,7.6,7.1c1.2-0.9,2.9-0.8,4,0.1L17.8,4c0-0.1,0-0.2,0-0.3c0-1.8,1.4-3.2,3.2-3.2s3.2,1.4,3.2,3.2
		c0,1.8-1.4,3.2-3.2,3.2c-0.8,0-1.5-0.3-2.1-0.8l-6.2,3.2c0,0.1,0,0.2,0,0.3c0,0.2,0,0.3,0,0.5l6.2,3.1c1.3-1.2,3.4-1.1,4.6,0.2
		C24,14.1,24.3,14.9,24.3,15.7L24.3,15.7z"/>
</g>
</svg>
