<svg xmlns="http://www.w3.org/2000/svg" width="20" height="17.245" viewBox="0 0 20 17.245">
  <g id="wechat-fill-svgrepo-com" transform="translate(-2 -3)">
    <path id="Tracciato_70" data-name="Tracciato 70" d="M11.809,7.059a.857.857,0,0,0-.837.844.836.836,0,0,0,.859.817.83.83,0,1,0-.022-1.661Zm-4.458.857a.856.856,0,0,0-.824-.856.832.832,0,0,0-.865.8.821.821,0,0,0,.814.852A.845.845,0,0,0,7.351,7.916Zm8.545.755A7.1,7.1,0,0,0,11.114,10.6a5.678,5.678,0,0,0-1.764,4.81c-.726-.09-1.387-.189-2.051-.245a1.274,1.274,0,0,0-.7.118c-.645.364-1.264.775-2,1.234.135-.609.222-1.142.376-1.654a.629.629,0,0,0-.286-.832A5.656,5.656,0,0,1,2.229,7.681,6.289,6.289,0,0,1,6.647,3.369,7.407,7.407,0,0,1,14.74,5.74,5.543,5.543,0,0,1,15.9,8.671Z" fill="#D9C27A"/>
    <path id="Tracciato_71" data-name="Tracciato 71" d="M17.688,12.384a.692.692,0,0,0-.687.662.682.682,0,1,0,.687-.662Zm-4.314,1.382a.692.692,0,1,0,.005-1.383.692.692,0,1,0-.005,1.383Zm6.692,6.479a6.306,6.306,0,0,0-1.7-.714,9.508,9.508,0,0,0-1.772.331,5.92,5.92,0,0,1-4.8-1.567,4.869,4.869,0,0,1,.768-7.941A6.458,6.458,0,0,1,20.911,11.6a4.743,4.743,0,0,1-.548,6.616c-.572.508-.778.926-.411,1.6A1.9,1.9,0,0,1,20.066,20.245Z" fill="#D9C27A"/>
  </g>
</svg>
