<svg id="weibo-fill-svgrepo-com" xmlns="http://www.w3.org/2000/svg" width="22.845" height="22.845" viewBox="0 0 22.845 22.845">
  <path id="Tracciato_68" data-name="Tracciato 68" d="M0,0H22.845V22.845H0Z" fill="none"/>
  <path id="Tracciato_69" data-name="Tracciato 69" d="M16.73,10.965a3.178,3.178,0,0,1,2.541,2.859c0,2.63-3.788,5.939-9.485,5.939C5.441,19.763,1,17.657,1,14.193c0-1.81,1.146-3.9,3.119-5.88,2.64-2.637,5.715-3.839,6.872-2.681a2.4,2.4,0,0,1,.232,2.448c-.169.53.5.238.5.238,2.132-.893,3.994-.946,4.673.026a2.19,2.19,0,0,1-.008,2.085c-.155.387.046.448.343.536ZM9.8,18.522c3.466-.345,6.093-2.467,5.87-4.743s-3.219-3.844-6.685-3.5-6.095,2.465-5.87,4.74S6.332,18.864,9.8,18.522ZM5.912,13.878a3.78,3.78,0,0,1,4.232-1.847,2.586,2.586,0,0,1,1.881,3.617,3.742,3.742,0,0,1-4.469,1.9,2.574,2.574,0,0,1-1.644-3.668ZM7.288,16.34a1.317,1.317,0,0,0,1.6-.524A.923.923,0,0,0,8.5,14.428a1.318,1.318,0,0,0-1.561.526A.918.918,0,0,0,7.288,16.34Zm2.1-1.721a.5.5,0,0,0,.6-.22.35.35,0,0,0-.169-.522.5.5,0,0,0-.584.221A.35.35,0,0,0,9.388,14.619Zm9.577-5.442a.69.69,0,1,1-1.312-.429,1.314,1.314,0,0,0-.274-1.292,1.328,1.328,0,0,0-1.257-.4A.689.689,0,1,1,15.833,5.7a2.7,2.7,0,0,1,3.132,3.473ZM15.237,2.919a5.551,5.551,0,0,1,6.438,7.138.8.8,0,0,1-1.525-.5,3.944,3.944,0,0,0-4.576-5.071.8.8,0,0,1-.337-1.571Z" transform="translate(-0.048 -0.135)" fill="#D9C27A"/>
</svg>
