<svg xmlns="http://www.w3.org/2000/svg" width="14.875" height="14.875" viewBox="0 0 14.875 14.875">
  <path id="Tracciato_14852" data-name="Tracciato 14852" d="M12.65,3.346a7.139,7.139,0,0,1,2.225,5.213,7.049,7.049,0,0,1-2.191,5.213A7.213,7.213,0,0,1,7.438,15.93a7.176,7.176,0,0,1-3.52-.9L0,16.063l1.063-3.818a7.14,7.14,0,0,1-1-3.686A7.1,7.1,0,0,1,2.225,3.346,7.1,7.1,0,0,1,7.438,1.188,7.1,7.1,0,0,1,12.65,3.346ZM7.438,14.7a5.966,5.966,0,0,0,4.35-1.81,5.885,5.885,0,0,0,1.826-4.333,5.756,5.756,0,0,0-1.859-4.316A5.884,5.884,0,0,0,7.438,2.449,5.939,5.939,0,0,0,3.1,4.242a5.857,5.857,0,0,0-1.81,4.316,5.89,5.89,0,0,0,.963,3.254l.133.232L1.76,14.3l2.324-.6.232.133A5.92,5.92,0,0,0,7.438,14.7Zm3.354-4.615a1.086,1.086,0,0,1,.365.232,1.5,1.5,0,0,1-.133.9,1.292,1.292,0,0,1-.515.548,1.678,1.678,0,0,1-.714.315,4.209,4.209,0,0,1-2.225-.465A7.831,7.831,0,0,1,4.449,8.824a3.269,3.269,0,0,1-.764-1.893,2.351,2.351,0,0,1,.631-1.561.753.753,0,0,1,.5-.2H5.18a.391.391,0,0,1,.4.3l.564,1.361a.366.366,0,0,1,.033.332,1.872,1.872,0,0,1-.332.515q-.2.216-.232.249t.033.232A4.089,4.089,0,0,0,6.657,9.455a8.736,8.736,0,0,0,1.478.9q.266.133.4-.033.432-.5.6-.73a.3.3,0,0,1,.4-.1Q9.795,9.588,10.791,10.086Z" transform="translate(0 -1.188)" fill="#98680E"/>
</svg>
